<svg width="52" height="50" viewBox="0 0 52 50" fill="none" xmlns="http://www.w3.org/2000/svg">
<g clip-path="url(#clip0_3_672)">
<path d="M51.4312 0.382661C51.698 0.606074 51.8839 0.908168 51.9612 1.24382C52.0386 1.57946 52.0031 1.93065 51.8602 2.24491C46.8877 13.1824 36.4455 28.2972 28.8015 36.1735C26.659 38.3768 24.0166 40.0528 21.0892 41.0651C21.0307 41.7889 20.8942 42.7806 20.5693 43.8329C19.916 45.9343 18.4015 48.5491 15.0182 49.3814C11.7417 50.1469 8.34607 50.2898 5.01475 49.8023C4.3953 49.7063 3.78456 49.5623 3.18825 49.3718C2.63657 49.2071 2.12237 48.9397 1.67375 48.5842C1.37791 48.3373 1.14994 48.0216 1.01075 47.6658C0.838237 47.2093 0.842864 46.7066 1.02375 46.2532C1.3325 45.472 2.05075 45.0415 2.522 44.8119C3.8025 44.1837 4.55325 43.3674 5.33975 42.1779C5.6485 41.7188 5.93775 41.2309 6.2725 40.6728L6.65275 40.0415C7.1435 39.2283 7.71225 38.3195 8.42725 37.3374C10.1433 34.9809 12.3305 34.3878 14.1018 34.4802C14.5113 34.5026 14.8915 34.56 15.2327 34.6333C15.4342 34.0848 15.6943 33.4216 16.0063 32.6945C16.8545 30.7207 18.1448 28.1697 19.864 26.0969C26.936 17.5829 39.949 6.30741 49.4942 0.25511C49.7881 0.0690112 50.1353 -0.0190946 50.4843 0.00388506C50.8333 0.0268647 51.1654 0.159703 51.4312 0.382661ZM15.2913 37.9847C14.86 37.8006 14.399 37.6927 13.9295 37.6658C13.13 37.6244 12.0673 37.8253 11.0728 39.1933C10.4325 40.0702 9.919 40.8897 9.44775 41.6709L9.1065 42.2353C8.762 42.8125 8.41425 43.3897 8.0665 43.919C7.40831 44.9654 6.57299 45.8939 5.5965 46.6646C7.839 47.0217 11.2385 47.0185 14.2318 46.2819C16.0485 45.8387 16.9715 44.4675 17.459 42.9018C17.6943 42.124 17.8318 41.3208 17.8685 40.5102L15.2913 37.9847ZM19.9713 38.0676C20.3612 37.9401 20.8715 37.7487 21.4597 37.4841C23.332 36.6318 25.0242 35.442 26.4485 33.9764C32.6235 27.6116 40.7875 16.2149 46.1175 6.45409C37.7 12.5989 28.028 21.3138 22.386 28.1123C20.9495 29.8438 19.8022 32.0759 18.9995 33.935C18.6063 34.8533 18.304 35.6569 18.1058 36.2309L19.9713 38.0676ZM3.809 47.7615L3.83175 47.7455C3.82477 47.7508 3.81712 47.7582 3.809 47.7615Z" fill="#D03939"/>
</g>
<defs>
<clipPath id="clip0_3_672">
<rect width="52" height="50" fill="white"/>
</clipPath>
</defs>
</svg>
