<svg width="56" height="52" viewBox="0 0 56 52" fill="none" xmlns="http://www.w3.org/2000/svg">
<g clip-path="url(#clip0_5_1003)">
<path d="M27.9996 9.37772L25.4901 6.8627C19.5996 0.959078 8.79863 2.99634 4.89963 10.4185C3.06913 13.9095 2.65613 18.9498 5.99863 25.3823C9.21863 31.576 15.9176 38.9948 27.9996 47.0756C40.0816 38.9948 46.7771 31.576 50.0006 25.3823C53.3431 18.9464 52.9336 13.9095 51.0996 10.4185C47.2006 2.99634 36.3996 0.955666 30.5091 6.85929L27.9996 9.37772ZM27.9996 51.1877C-25.6659 16.6122 11.4761 -10.3738 27.3836 3.90065C27.5936 4.08834 27.8001 4.28285 27.9996 4.48419C28.1971 4.28304 28.4026 4.08951 28.6156 3.90407C44.5196 -10.3807 81.6651 16.6088 27.9996 51.1877Z" fill="#D03939"/>
</g>
<defs>
<clipPath id="clip0_5_1003">
<rect width="56" height="52" fill="white"/>
</clipPath>
</defs>
</svg>
