<svg width="50" height="51" viewBox="0 0 50 51" fill="none" xmlns="http://www.w3.org/2000/svg">
<g clip-path="url(#clip0_3_679)">
<path d="M25 25.5C28.3152 25.5 31.4946 24.1567 33.8388 21.7656C36.183 19.3745 37.5 16.1315 37.5 12.75C37.5 9.36849 36.183 6.12548 33.8388 3.73439C31.4946 1.3433 28.3152 0 25 0C21.6848 0 18.5054 1.3433 16.1612 3.73439C13.817 6.12548 12.5 9.36849 12.5 12.75C12.5 16.1315 13.817 19.3745 16.1612 21.7656C18.5054 24.1567 21.6848 25.5 25 25.5ZM33.3333 12.75C33.3333 15.0043 32.4554 17.1663 30.8926 18.7604C29.3298 20.3545 27.2101 21.25 25 21.25C22.7899 21.25 20.6702 20.3545 19.1074 18.7604C17.5446 17.1663 16.6667 15.0043 16.6667 12.75C16.6667 10.4957 17.5446 8.33365 19.1074 6.73959C20.6702 5.14553 22.7899 4.25 25 4.25C27.2101 4.25 29.3298 5.14553 30.8926 6.73959C32.4554 8.33365 33.3333 10.4957 33.3333 12.75ZM50 46.75C50 51 45.8333 51 45.8333 51H4.16667C4.16667 51 0 51 0 46.75C0 42.5 4.16667 29.75 25 29.75C45.8333 29.75 50 42.5 50 46.75ZM45.8333 46.733C45.8292 45.6875 45.1917 42.5425 42.3667 39.661C39.65 36.89 34.5375 34 25 34C15.4583 34 10.35 36.89 7.63333 39.661C4.80833 42.5425 4.175 45.6875 4.16667 46.733H45.8333Z" fill="#D03939"/>
</g>
<defs>
<clipPath id="clip0_3_679">
<rect width="50" height="51" fill="white"/>
</clipPath>
</defs>
</svg>
