<svg width="33" height="35" viewBox="0 0 33 35" fill="none" xmlns="http://www.w3.org/2000/svg">
<path fill-rule="evenodd" clip-rule="evenodd" d="M2.9211 11.8575C2.9211 6.84966 7.17152 2.79 12.4147 2.79C17.6578 2.79 21.9082 6.84966 21.9082 11.8575C21.9082 16.8654 17.6578 20.925 12.4147 20.925C7.17152 20.925 2.9211 16.8654 2.9211 11.8575ZM12.4147 0C5.55824 0 0 5.30879 0 11.8575C0 18.4062 5.55824 23.715 12.4147 23.715C14.686 23.715 16.8149 23.1324 18.6464 22.1152L31.0205 35L33 32.9389L20.9893 20.4324C23.3554 18.2733 24.8293 15.2298 24.8293 11.8575C24.8293 5.30879 19.2711 0 12.4147 0Z" fill="#D03939"/>
</svg>
