<svg width="58" height="51" viewBox="0 0 58 51" fill="none" xmlns="http://www.w3.org/2000/svg">
<path d="M21.4926 2.75795C21.615 2.55273 21.6959 2.32529 21.7308 2.08864C21.7656 1.85199 21.7538 1.61075 21.6959 1.37869C21.638 1.14664 21.5352 0.928322 21.3933 0.736199C21.2515 0.544077 21.0733 0.381914 20.8691 0.258969C20.6649 0.136024 20.4386 0.054706 20.2031 0.0196568C19.9676 -0.0153924 19.7275 -0.00348579 19.4966 0.0546964C19.2657 0.112879 19.0485 0.216197 18.8573 0.358753C18.6661 0.501309 18.5047 0.68031 18.3824 0.885536L8.03662 18.2145H1.8125C1.3318 18.2145 0.870779 18.4064 0.530869 18.748C0.190959 19.0896 0 19.5528 0 20.0359L0 23.6787C0 24.1618 0.190959 24.6251 0.530869 24.9667C0.870779 25.3083 1.3318 25.5002 1.8125 25.5002H4.07088L10.7554 49.0183C10.918 49.5903 11.2619 50.0934 11.7349 50.451C12.208 50.8087 12.7843 51.0015 13.3763 51H44.631C45.2224 51.0007 45.7978 50.8075 46.2701 50.4499C46.7424 50.0923 47.0858 49.5897 47.2483 49.0183L53.9291 25.5002H56.1875C56.6682 25.5002 57.1292 25.3083 57.4691 24.9667C57.809 24.6251 58 24.1618 58 23.6787V20.0359C58 19.5528 57.809 19.0896 57.4691 18.748C57.1292 18.4064 56.6682 18.2145 56.1875 18.2145H49.9634L39.6213 0.885536C39.4989 0.68031 39.3375 0.501309 39.1464 0.358753C38.9552 0.216197 38.7379 0.112879 38.507 0.0546964C38.2761 -0.00348579 38.036 -0.0153924 37.8005 0.0196568C37.565 0.054706 37.3387 0.136024 37.1345 0.258969C36.9303 0.381914 36.7522 0.544077 36.6103 0.736199C36.4684 0.928322 36.3656 1.14664 36.3077 1.37869C36.2498 1.61075 36.238 1.85199 36.2729 2.08864C36.3077 2.32529 36.3887 2.55273 36.511 2.75795L45.7366 18.2145H12.2634L21.4926 2.75795ZM14.5 32.7858C14.5 31.8197 14.8819 30.8931 15.5617 30.21C16.2416 29.5268 17.1636 29.143 18.125 29.143C19.0864 29.143 20.0084 29.5268 20.6883 30.21C21.3681 30.8931 21.75 31.8197 21.75 32.7858V40.0715C21.75 41.0376 21.3681 41.9642 20.6883 42.6474C20.0084 43.3305 19.0864 43.7143 18.125 43.7143C17.1636 43.7143 16.2416 43.3305 15.5617 42.6474C14.8819 41.9642 14.5 41.0376 14.5 40.0715V32.7858ZM25.375 32.7858C25.375 31.8197 25.7569 30.8931 26.4367 30.21C27.1166 29.5268 28.0386 29.143 29 29.143C29.9614 29.143 30.8834 29.5268 31.5633 30.21C32.2431 30.8931 32.625 31.8197 32.625 32.7858V40.0715C32.625 41.0376 32.2431 41.9642 31.5633 42.6474C30.8834 43.3305 29.9614 43.7143 29 43.7143C28.0386 43.7143 27.1166 43.3305 26.4367 42.6474C25.7569 41.9642 25.375 41.0376 25.375 40.0715V32.7858ZM39.875 29.143C40.8364 29.143 41.7584 29.5268 42.4383 30.21C43.1181 30.8931 43.5 31.8197 43.5 32.7858V40.0715C43.5 41.0376 43.1181 41.9642 42.4383 42.6474C41.7584 43.3305 40.8364 43.7143 39.875 43.7143C38.9136 43.7143 37.9916 43.3305 37.3117 42.6474C36.6319 41.9642 36.25 41.0376 36.25 40.0715V32.7858C36.25 31.8197 36.6319 30.8931 37.3117 30.21C37.9916 29.5268 38.9136 29.143 39.875 29.143Z" fill="#D03939"/>
</svg>
